<?xml version="1.0" standalone="no"?><!-- Generator: Gravit.io --><svg xmlns="http://www.w3.org/2000/svg" xmlns:xlink="http://www.w3.org/1999/xlink" style="isolation:isolate" viewBox="0 0 530.797 216.945" width="530.797" height="216.945"><defs><clipPath id="_clipPath_Dsfs8jrhS7xXIdbrlDckPluBu3q9DB60"><rect width="530.797" height="216.945"/></clipPath></defs><g clip-path="url(#_clipPath_Dsfs8jrhS7xXIdbrlDckPluBu3q9DB60)"><g id="pink"><path d=" M 362.835 216.945 L 167.962 216.945 C 160.592 216.945 154.583 210.898 154.583 203.565 L 154.583 196.006 C 154.583 188.674 160.592 182.627 167.962 182.627 L 362.835 182.627 C 370.205 182.627 376.214 188.674 376.214 196.006 L 376.214 203.565 C 376.214 210.898 370.205 216.945 362.835 216.945 Z " fill="rgb(222,0,75)"/><path d=" M 15.194 0 C 23.584 0 30.387 7.257 30.387 16.176 C 30.387 23.887 25.361 30.312 18.595 31.937 L 18.595 129.222 C 18.595 146.343 31.672 160.29 47.735 160.29 C 63.761 160.29 76.762 146.343 76.762 129.222 L 76.762 78.992 C 76.762 57.26 93.014 39.609 113.008 39.609 L 113.008 39.609 C 113.008 39.609 113.008 39.609 113.008 39.609 C 113.008 39.609 113.008 39.609 113.046 39.609 L 113.046 39.609 C 133.002 39.609 149.254 57.26 149.254 78.992 L 149.254 92.107 L 149.405 92.107 L 149.405 129.222 C 149.405 146.306 162.406 160.214 178.431 160.29 C 194.419 160.214 207.42 146.306 207.42 129.222 L 207.572 129.222 L 207.572 78.992 C 207.572 57.26 223.824 39.609 243.817 39.609 L 243.817 39.609 C 243.817 39.609 243.817 39.609 243.817 39.609 C 243.817 39.609 243.817 39.609 243.817 39.609 L 243.817 39.609 C 255.005 39.609 265.02 45.128 271.672 53.82 C 278.324 45.128 288.34 39.609 299.528 39.609 L 299.528 39.609 C 299.565 39.609 299.565 39.609 299.565 39.609 C 299.565 39.609 299.565 39.609 299.565 39.609 L 299.565 39.609 C 319.559 39.609 335.811 57.26 335.811 78.992 L 335.811 129.222 C 335.811 146.343 348.813 160.29 364.8 160.29 L 364.8 160.29 C 380.825 160.214 393.827 146.306 393.827 129.222 L 393.978 129.222 L 393.978 129.222 L 393.978 128.731 L 393.978 101.707 L 393.978 78.992 C 393.978 57.335 410.154 39.685 430.035 39.609 L 430.035 47.433 C 414.198 47.509 401.31 61.644 401.31 78.992 L 401.31 98.759 L 430.035 98.759 L 430.035 106.091 L 401.31 106.091 L 401.31 128.731 C 401.31 145.89 413.896 159.874 429.543 160.29 C 444.888 159.987 457.361 146.872 458.003 130.545 C 457.965 130.129 457.965 129.676 457.965 129.222 L 458.494 47.395 L 458.494 39.609 L 465.827 39.609 L 494.551 39.609 C 514.469 39.685 530.646 57.335 530.646 78.992 C 530.646 83.679 530.683 129.222 530.797 129.222 C 530.797 148.422 517.682 164.409 500.523 167.546 C 500.372 167.584 500.22 167.584 500.069 167.622 L 499.843 167.66 C 498.104 167.962 496.365 168.113 494.551 168.113 L 494.551 168.113 L 494.324 168.113 C 480 168.113 467.565 159.194 461.669 146.268 C 455.887 158.891 443.943 167.66 430.035 168.076 L 430.035 168.113 C 429.846 168.113 429.657 168.113 429.468 168.113 C 429.392 168.113 429.279 168.113 429.203 168.113 L 429.203 168.076 C 415.37 167.66 403.465 158.816 397.682 146.117 C 391.824 159.118 379.351 168.113 364.951 168.113 L 364.876 168.113 L 364.838 168.113 C 344.769 168.113 328.479 150.652 328.479 129.222 L 328.479 78.992 C 328.479 61.569 315.477 47.433 299.565 47.395 C 289.814 47.433 281.197 52.687 275.943 60.775 C 278.589 66.217 280.063 72.416 280.063 78.992 L 280.063 129.222 C 280.063 146.306 292.989 160.176 308.901 160.29 L 308.901 163.805 L 308.901 168.113 C 288.945 168 272.731 150.614 272.731 129.222 L 272.731 78.992 C 272.731 76.082 272.353 73.247 271.672 70.564 C 271.635 70.828 271.559 71.131 271.483 71.395 L 271.483 69.808 C 267.893 56.844 256.857 47.433 243.817 47.395 C 227.868 47.433 214.904 61.569 214.904 78.992 L 214.904 129.222 C 214.904 150.652 198.614 168.113 178.545 168.113 C 178.507 168.113 178.469 168.113 178.431 168.113 C 178.394 168.113 178.318 168.113 178.28 168.113 C 158.249 168.113 141.921 150.652 141.921 129.222 L 141.921 78.992 C 141.921 61.569 128.957 47.433 113.008 47.395 C 97.096 47.433 84.094 61.569 84.094 78.992 L 84.094 129.222 C 84.094 150.652 67.805 168.113 47.735 168.113 C 27.628 168.113 11.263 150.652 11.263 129.222 L 11.263 31.824 C 4.8 29.972 0 23.698 0 16.176 C 0 7.257 6.803 0 15.194 0 Z  M 497.613 145.398 L 497.613 160.101 L 498.028 160.025 L 498.028 160.025 C 498.217 160.025 498.406 159.987 498.595 159.95 L 498.822 159.912 L 499.124 159.874 C 512.844 157.38 523.313 144.378 523.313 128.731 L 523.313 117.43 L 523.313 106.091 L 523.313 98.759 L 523.313 81.411 L 523.313 78.992 C 523.313 61.644 510.425 47.509 494.551 47.433 L 494.551 47.395 L 465.827 47.395 L 465.335 126.085 L 465.335 126.085 L 465.335 129.222 C 465.335 129.676 465.335 130.129 465.335 130.545 C 465.902 145.625 476.598 157.946 490.28 159.987 L 490.28 145.398 L 492.586 145.398 C 492.586 142.186 492.661 138.973 492.737 136.857 L 492.737 136.857 L 492.737 136.857 C 492.737 136.819 492.737 136.819 492.737 136.819 C 480.416 136.139 470.589 125.896 470.589 113.424 L 470.589 99.855 C 470.589 98.721 471.383 97.739 472.441 97.474 L 472.441 75.477 C 472.441 73.02 474.444 71.055 476.901 71.055 L 478.753 71.055 C 479.093 70.375 479.773 69.921 480.567 69.921 L 481.55 69.921 C 482.646 69.921 483.553 70.791 483.553 71.887 C 483.553 72.983 482.646 73.852 481.55 73.852 L 480.567 73.852 C 479.584 73.852 478.791 73.172 478.602 72.302 L 476.901 72.302 C 475.124 72.302 473.688 73.739 473.688 75.477 L 473.688 97.436 C 474.784 97.701 475.616 98.683 475.616 99.855 L 475.616 113.424 C 475.616 123.591 483.893 131.868 494.06 131.868 C 504.227 131.868 512.504 123.591 512.504 113.424 L 512.504 100.082 C 512.504 98.91 513.298 97.928 514.394 97.663 L 514.394 75.477 C 514.394 73.739 512.957 72.302 511.181 72.302 L 509.443 72.302 C 509.254 73.172 508.46 73.852 507.515 73.852 L 506.494 73.852 C 505.398 73.852 504.529 72.983 504.529 71.887 C 504.529 70.791 505.398 69.921 506.494 69.921 L 507.515 69.921 C 508.309 69.921 508.989 70.375 509.291 71.055 L 511.181 71.055 C 513.638 71.055 515.641 73.02 515.641 75.477 L 515.641 97.663 C 516.699 97.928 517.493 98.91 517.493 100.082 L 517.493 113.424 C 517.493 125.934 507.628 136.214 495.231 136.819 C 495.231 137.31 495.194 137.839 495.194 138.444 L 495.156 139.389 L 495.156 139.389 C 495.118 141.203 495.08 143.282 495.08 145.398 L 497.613 145.398 Z " fill="rgb(222,0,75)"/><path d=" M 165.619 190.337 L 165.883 190.375 L 167.735 190.375 L 167.924 190.337 C 168.605 190.45 168.907 190.791 168.907 191.32 C 168.794 191.962 168.491 192.302 167.962 192.302 L 167.773 192.302 L 167.773 207.307 L 168.076 207.307 C 168.491 207.307 168.794 207.609 168.907 208.252 L 168.907 208.328 C 168.794 208.932 168.491 209.272 167.962 209.272 L 165.619 209.272 C 165.014 209.121 164.674 208.819 164.674 208.328 L 164.674 208.252 C 164.825 207.609 165.09 207.307 165.543 207.307 L 165.846 207.307 L 165.846 192.34 L 165.619 192.34 C 165.09 192.34 164.787 191.962 164.674 191.282 L 164.674 191.206 C 164.674 190.828 165.014 190.526 165.619 190.337 Z  M 172.951 195.893 C 173.556 196.044 173.858 196.309 173.858 196.724 L 173.896 197.783 C 175.294 196.498 176.844 195.893 178.507 195.893 C 180.359 195.893 181.984 196.649 183.383 198.161 C 184.441 199.446 184.932 200.806 184.932 202.205 L 184.932 208.441 C 184.932 208.857 184.63 209.121 184.025 209.272 L 183.987 209.272 C 183.345 209.159 183.043 208.819 183.043 208.328 L 183.043 202.847 C 183.043 200.428 181.984 198.803 179.868 198.009 C 179.376 197.896 178.923 197.82 178.507 197.82 L 178.356 197.82 C 176.58 197.82 175.219 198.728 174.236 200.58 C 174.009 201.146 173.858 202.016 173.858 203.263 L 173.858 208.365 C 173.858 208.857 173.556 209.159 172.951 209.272 L 172.913 209.272 C 172.384 209.272 172.082 208.932 171.969 208.29 L 171.969 196.989 C 172.044 196.233 172.384 195.893 172.951 195.893 Z  M 199.408 190.564 L 199.635 190.564 C 200.202 190.677 200.504 190.942 200.504 191.357 L 200.504 201.109 L 200.58 202.772 C 200.58 204.094 200.05 205.417 198.992 206.854 C 197.48 208.441 195.817 209.272 193.965 209.272 L 193.55 209.272 C 191.735 209.272 190.035 208.403 188.485 206.702 C 187.54 205.342 187.049 203.943 187.049 202.507 C 187.049 200.315 188.031 198.463 189.959 196.951 C 191.206 196.157 192.491 195.742 193.814 195.742 C 195.515 195.742 197.14 196.422 198.652 197.783 L 198.652 192.189 L 198.576 191.395 C 198.765 190.828 199.03 190.564 199.408 190.564 Z  M 188.976 202.356 L 188.976 202.583 C 188.976 204.586 190.035 206.098 192.113 207.08 C 192.68 207.231 193.209 207.345 193.663 207.345 L 193.965 207.345 C 195.893 207.345 197.405 206.287 198.387 204.17 C 198.539 203.528 198.652 203.036 198.652 202.696 L 198.652 202.394 C 198.652 200.391 197.556 198.917 195.439 197.896 C 194.797 197.745 194.268 197.669 193.89 197.669 L 193.701 197.669 C 191.773 197.669 190.261 198.69 189.279 200.769 C 189.09 201.335 188.976 201.865 188.976 202.356 Z  M 209.424 195.969 C 211.162 195.969 212.712 196.611 214.11 197.896 C 215.433 199.294 216.076 200.844 216.076 202.62 C 216.076 205.077 214.904 207.043 212.523 208.479 C 211.54 209.008 210.52 209.272 209.575 209.272 L 209.197 209.272 C 207.383 209.272 205.72 208.403 204.208 206.74 C 203.263 205.417 202.772 204.019 202.772 202.62 C 202.772 200.466 203.754 198.614 205.644 197.178 C 206.854 196.346 208.139 195.969 209.424 195.969 Z  M 204.737 202.469 L 204.737 202.696 C 204.737 204.472 205.606 205.833 207.307 206.816 C 207.912 207.156 208.592 207.307 209.272 207.307 L 209.575 207.307 C 211.427 207.307 212.825 206.362 213.808 204.435 C 214.035 203.83 214.11 203.263 214.11 202.696 L 214.11 202.469 C 214.11 200.995 213.468 199.748 212.107 198.728 C 211.313 198.198 210.406 197.896 209.386 197.896 C 207.383 197.896 205.909 198.954 204.964 201.071 C 204.813 201.562 204.737 202.054 204.737 202.469 Z  M 219.553 195.893 C 220.157 196.044 220.498 196.309 220.498 196.724 L 220.498 197.783 C 221.896 196.498 223.446 195.893 225.109 195.893 C 226.961 195.893 228.586 196.649 229.984 198.161 C 231.043 199.446 231.572 200.806 231.572 202.205 L 231.572 208.441 C 231.572 208.857 231.231 209.121 230.627 209.272 L 230.589 209.272 C 229.946 209.159 229.644 208.819 229.644 208.328 L 229.644 202.847 C 229.644 200.428 228.586 198.803 226.507 198.009 C 225.978 197.896 225.524 197.82 225.109 197.82 L 224.957 197.82 C 223.181 197.82 221.82 198.728 220.876 200.58 C 220.611 201.146 220.498 202.016 220.498 203.263 L 220.498 208.365 C 220.498 208.857 220.157 209.159 219.553 209.272 L 219.515 209.272 C 219.024 209.272 218.683 208.932 218.57 208.29 L 218.57 196.989 C 218.646 196.233 218.986 195.893 219.553 195.893 Z  M 240.302 195.855 C 242.872 195.855 244.876 197.065 246.312 199.521 C 246.803 200.466 247.03 201.524 247.03 202.658 L 247.03 202.885 C 246.917 203.565 246.614 203.868 246.123 203.868 L 235.805 203.868 C 236.183 205.191 237.014 206.173 238.299 206.854 C 239.017 207.156 239.735 207.307 240.378 207.307 C 241.134 207.307 242.003 207.043 242.986 206.589 L 243.288 206.589 C 243.855 206.665 244.157 206.967 244.157 207.458 L 244.157 207.609 C 244.157 208.403 242.986 208.97 240.643 209.272 L 240.302 209.272 C 237.883 209.272 235.956 208.139 234.52 205.871 C 233.953 204.813 233.65 203.717 233.65 202.545 C 233.65 200.088 234.822 198.161 237.128 196.687 C 238.261 196.12 239.32 195.855 240.302 195.855 Z  M 235.654 201.978 L 245.027 201.978 C 245.027 201.298 244.649 200.428 243.855 199.37 C 242.797 198.35 241.739 197.858 240.68 197.858 L 240.151 197.858 C 238.602 197.858 237.279 198.614 236.296 200.164 C 235.918 200.769 235.729 201.373 235.654 201.978 Z  M 254.249 195.969 C 256.479 195.969 258.255 196.989 259.54 198.992 L 259.578 199.37 L 259.578 199.446 C 259.578 199.937 259.238 200.277 258.595 200.353 C 258.18 200.353 257.726 199.975 257.31 199.257 C 256.403 198.387 255.383 197.934 254.249 197.934 C 252.775 197.934 251.603 198.652 250.734 200.05 L 250.696 200.315 C 250.696 200.731 251.15 200.995 252.132 201.071 C 255.836 201.978 257.877 202.507 258.217 202.62 C 259.162 203.225 259.616 204.019 259.616 204.964 L 259.616 205.002 C 259.616 206.324 258.633 207.572 256.668 208.668 C 255.836 209.046 254.929 209.272 253.946 209.272 C 252.019 209.272 250.356 208.328 248.995 206.513 C 248.844 206.324 248.806 206.135 248.806 205.984 L 248.806 205.682 C 248.806 205.228 249.146 204.926 249.865 204.85 C 250.167 204.85 250.583 205.266 251.15 206.06 C 252.019 206.891 253.039 207.269 254.173 207.269 C 255.534 207.269 256.63 206.627 257.537 205.342 L 257.65 205.039 L 257.65 205.002 C 257.65 204.586 257.348 204.359 256.781 204.283 C 252.435 203.301 250.167 202.696 249.902 202.469 C 249.109 201.865 248.693 201.146 248.693 200.277 C 248.693 199.03 249.6 197.858 251.339 196.724 C 252.321 196.233 253.304 195.969 254.249 195.969 Z  M 263.395 192.454 C 264.038 192.605 264.34 192.907 264.34 193.285 L 264.34 193.587 C 264.34 194.041 264 194.306 263.32 194.419 C 262.866 194.419 262.564 194.079 262.413 193.436 C 262.564 192.794 262.866 192.454 263.395 192.454 Z  M 263.395 195.78 C 264.038 195.969 264.34 196.233 264.34 196.649 L 264.34 208.365 C 264.34 208.857 264.038 209.159 263.395 209.272 L 263.357 209.272 C 262.866 209.272 262.526 208.932 262.413 208.29 L 262.413 196.913 C 262.488 196.157 262.828 195.78 263.395 195.78 Z  M 273.978 195.893 C 276.472 195.893 278.476 197.14 279.95 199.597 C 280.403 200.617 280.63 201.638 280.63 202.734 L 280.63 208.365 C 280.63 208.857 280.328 209.159 279.723 209.272 L 279.647 209.272 C 279.231 209.272 278.929 209.008 278.74 208.517 L 278.74 208.479 L 278.778 207.269 L 278.778 207.194 C 277.342 208.554 275.792 209.272 274.129 209.272 L 273.751 209.272 C 271.521 209.272 269.631 208.101 268.12 205.833 C 267.553 204.737 267.288 203.641 267.288 202.545 C 267.288 200.05 268.498 198.085 270.917 196.649 C 271.975 196.157 272.995 195.893 273.978 195.893 Z  M 269.178 202.469 L 269.178 202.62 C 269.178 204.586 270.161 206.022 272.088 207.005 C 272.731 207.231 273.26 207.345 273.751 207.345 L 274.129 207.345 C 275.754 207.345 277.115 206.551 278.173 204.926 C 278.551 204.17 278.74 203.414 278.74 202.734 L 278.74 202.545 C 278.74 200.655 277.795 199.219 275.943 198.236 C 275.301 197.934 274.658 197.82 273.978 197.82 L 273.902 197.82 C 271.937 197.82 270.463 198.841 269.48 200.882 C 269.291 201.524 269.178 202.054 269.178 202.469 Z  M 283.994 190.564 L 284.183 190.564 C 284.712 190.564 285.052 190.98 285.279 191.849 L 291.553 205.833 C 291.704 205.644 293.178 202.394 295.937 196.082 L 298.356 190.866 C 298.545 190.639 298.772 190.564 298.998 190.564 L 299.225 190.564 C 299.679 190.564 299.981 190.904 300.057 191.622 L 300.057 208.252 C 299.906 208.932 299.603 209.272 299.112 209.272 L 299.036 209.272 C 298.431 209.159 298.129 208.857 298.129 208.365 L 298.129 196.082 L 298.054 196.082 C 294.387 204.435 292.46 208.706 292.346 208.932 C 292.082 209.159 291.855 209.272 291.591 209.272 C 291.024 209.272 290.532 208.554 290.079 207.194 L 285.128 196.12 L 285.09 196.12 L 285.09 208.365 C 285.09 208.857 284.787 209.159 284.145 209.272 L 284.107 209.272 C 283.578 209.272 283.276 208.932 283.162 208.252 L 283.162 191.622 C 283.238 190.904 283.502 190.564 283.994 190.564 Z  M 308.939 195.855 C 311.509 195.855 313.512 197.065 314.948 199.521 C 315.439 200.466 315.704 201.524 315.704 202.658 L 315.704 202.885 C 315.591 203.565 315.25 203.868 314.759 203.868 L 304.441 203.868 C 304.819 205.191 305.65 206.173 306.935 206.854 C 307.691 207.156 308.372 207.307 309.052 207.307 C 309.808 207.307 310.677 207.043 311.622 206.589 L 311.924 206.589 C 312.491 206.665 312.794 206.967 312.794 207.458 L 312.794 207.609 C 312.794 208.403 311.622 208.97 309.279 209.272 L 308.939 209.272 C 306.557 209.272 304.63 208.139 303.156 205.871 C 302.589 204.813 302.287 203.717 302.287 202.545 C 302.287 200.088 303.458 198.161 305.764 196.687 C 306.898 196.12 307.956 195.855 308.939 195.855 Z  M 304.29 201.978 L 313.701 201.978 C 313.701 201.298 313.285 200.428 312.529 199.37 C 311.433 198.35 310.375 197.858 309.354 197.858 L 308.787 197.858 C 307.238 197.858 305.953 198.614 304.932 200.164 C 304.592 200.769 304.365 201.373 304.29 201.978 Z  M 329.915 190.564 L 330.104 190.564 C 330.709 190.677 331.011 190.942 331.011 191.357 L 331.011 201.109 L 331.049 202.772 C 331.049 204.094 330.52 205.417 329.461 206.854 C 327.987 208.441 326.324 209.272 324.435 209.272 L 324.057 209.272 C 322.243 209.272 320.542 208.403 318.992 206.702 C 318.009 205.342 317.556 203.943 317.556 202.507 C 317.556 200.315 318.501 198.463 320.428 196.951 C 321.676 196.157 322.961 195.742 324.283 195.742 C 326.022 195.742 327.609 196.422 329.121 197.783 L 329.121 192.189 L 329.083 191.395 C 329.272 190.828 329.537 190.564 329.915 190.564 Z  M 319.483 202.356 L 319.483 202.583 C 319.483 204.586 320.504 206.098 322.62 207.08 C 323.187 207.231 323.679 207.345 324.132 207.345 L 324.435 207.345 C 326.4 207.345 327.874 206.287 328.894 204.17 C 329.046 203.528 329.121 203.036 329.121 202.696 L 329.121 202.394 C 329.121 200.391 328.063 198.917 325.909 197.896 C 325.266 197.745 324.775 197.669 324.397 197.669 L 324.208 197.669 C 322.243 197.669 320.769 198.69 319.748 200.769 C 319.559 201.335 319.483 201.865 319.483 202.356 Z  M 335.093 192.454 C 335.698 192.605 336.038 192.907 336.038 193.285 L 336.038 193.587 C 336.038 194.041 335.698 194.306 334.98 194.419 C 334.564 194.419 334.261 194.079 334.11 193.436 C 334.224 192.794 334.564 192.454 335.093 192.454 Z  M 335.093 195.78 C 335.698 195.969 336.038 196.233 336.038 196.649 L 336.038 208.365 C 336.038 208.857 335.698 209.159 335.093 209.272 L 335.017 209.272 C 334.526 209.272 334.224 208.932 334.11 208.29 L 334.11 196.913 C 334.186 196.157 334.526 195.78 335.093 195.78 Z  M 340.233 190.488 L 340.46 190.488 C 341.027 190.639 341.329 190.904 341.329 191.282 L 341.329 201.033 C 346.016 197.972 348.699 196.195 349.493 195.742 L 349.757 195.742 C 350.249 195.742 350.589 196.082 350.665 196.8 C 350.665 197.178 350.173 197.669 349.115 198.236 C 346.545 199.975 345.184 200.844 345.109 200.844 L 345.109 200.882 L 350.627 207.912 L 350.665 208.214 L 350.665 208.252 C 350.551 208.894 350.249 209.197 349.757 209.197 L 349.644 209.197 C 349.266 209.197 348.699 208.63 347.906 207.534 L 343.446 201.978 L 343.408 201.978 L 341.329 203.339 L 341.329 208.365 C 341.329 208.857 341.027 209.159 340.384 209.272 L 340.346 209.272 C 339.893 209.272 339.553 208.97 339.402 208.365 L 339.402 191.433 C 339.553 190.828 339.817 190.488 340.233 190.488 Z  M 359.433 195.893 C 361.965 195.893 363.969 197.14 365.443 199.597 C 365.896 200.617 366.123 201.638 366.123 202.734 L 366.123 208.365 C 366.123 208.857 365.783 209.159 365.178 209.272 L 365.14 209.272 C 364.724 209.272 364.422 209.008 364.195 208.517 L 364.195 208.479 L 364.271 207.269 L 364.271 207.194 C 362.835 208.554 361.285 209.272 359.622 209.272 L 359.244 209.272 C 356.976 209.272 355.087 208.101 353.575 205.833 C 353.046 204.737 352.743 203.641 352.743 202.545 C 352.743 200.05 353.991 198.085 356.409 196.649 C 357.43 196.157 358.45 195.893 359.433 195.893 Z  M 354.671 202.469 L 354.671 202.62 C 354.671 204.586 355.616 206.022 357.581 207.005 C 358.186 207.231 358.753 207.345 359.244 207.345 L 359.622 207.345 C 361.247 207.345 362.57 206.551 363.628 204.926 C 364.006 204.17 364.195 203.414 364.195 202.734 L 364.195 202.545 C 364.195 200.655 363.288 199.219 361.436 198.236 C 360.794 197.934 360.113 197.82 359.433 197.82 L 359.395 197.82 C 357.43 197.82 355.918 198.841 354.935 200.882 C 354.746 201.524 354.671 202.054 354.671 202.469 Z " fill="rgb(254,254,254)"/></g></g></svg>